# xmcd
#
# Track frame offsets:
#	150
#	20555
#	77843
#	106952
#	141869
#	188932
#	215176
#	245157
#	271505
#	295417
#
# Disc length: 4130 seconds
#
# Revision: 0
# Processed by: cddbd v1.5.2PL0 Copyright (c) Steve Scherf et al.
# Submitted via: EZCDAudioConverter 1.3.4.1
#
DISCID=9910200a
DTITLE=Scott Walker - The Drift
DYEAR=1900
DGENRE=
TTITLE0=Cossacks Are
TTITLE1=Clara
TTITLE2=Jesse
TTITLE3=Jolson And Jones
TTITLE4=Cue
TTITLE5=Hand Me Ups
TTITLE6=Buzzers
TTITLE7=Psoriatic
TTITLE8=The Escape
TTITLE9=A Lover Loves
EXTD=
EXTT0=
EXTT1=
EXTT2=
EXTT3=
EXTT4=
EXTT5=
EXTT6=
EXTT7=
EXTT8=
EXTT9=
PLAYORDER=
